<?xml version="1.0" encoding="utf-8"?>
<!-- Generator: Adobe Illustrator 23.1.0, SVG Export Plug-In . SVG Version: 6.00 Build 0)  -->
<svg version="1.1" id="Layer_1" xmlns="http://www.w3.org/2000/svg" xmlns:xlink="http://www.w3.org/1999/xlink" x="0px" y="0px"
	 width="24px" height="24px" viewBox="0 0 24 24" style="enable-background:new 0 0 24 24;" xml:space="preserve">
<g>
	<path d="M1.5,18.4c0-0.2,0-0.5,0-0.7c0.1-0.4,0.1-0.9,0.2-1.3c0-0.2,0.1-0.5,0.2-0.7c0.3-0.7,0.7-1.4,1.1-2.1
		C3,13.2,3,12.9,3.1,12.6c0.1-0.3,0.1-0.6,0.2-0.8c0.5-0.9,1-1.7,0.9-2.8c0-0.3,0.1-0.6,0.3-0.9c0.7-0.8,1.2-1.8,1-2.9
		c0-0.1,0-0.3,0.1-0.4c0.4-0.7,0.7-1.3,1.1-2c0.2-0.4,0.5-0.7,1-0.7c0.4,0,0.8,0,1.2,0c3,0,6.1,0,9.1,0c1.3,0,2.1,1,1.7,2.3
		c-1.2,3.9-2.3,7.7-3.5,11.6c-0.5,1.6-0.9,1.9-2.6,1.9c-3.3,0-6.7,0-10,0c-0.2,0-0.3,0-0.5,0c-0.5,0.1-0.6,0.3-0.4,0.8
		c0.3,0.7,0.9,0.8,1.5,0.8c3.8,0,7.7,0,11.5,0c0.7,0,1-0.3,1.2-1c1.3-4.2,2.5-8.3,3.8-12.5c0,0,0.1,0,0.1,0c0.7,0.4,1,1.2,0.7,2.1
		c-1.1,3.6-2.2,7.2-3.3,10.8c-0.4,1.3-1.3,2-2.7,2c-3.7,0-7.3,0-11,0c-1.2,0-2.1-0.5-2.8-1.5C1.8,19.2,1.7,18.8,1.5,18.4z M11.7,8.3
		c0,0-0.1,0-0.1,0c0-1.1,0-2.2,0-3.3c-0.4,0-0.7,0-1,0c-0.5,1.4-0.9,2.9-1.4,4.3c0.5,0.1,0.7,0,0.8-0.5c0.2-0.9,0.5-1.8,0.8-2.7
		c0,0,0.1,0,0.1,0c0,1.1,0,2.1,0,3.1c0.5,0.1,0.9,0,1.1-0.4c0.1-0.1,0.1-0.2,0.2-0.3C12.9,7.6,13.5,6.8,14,6c0,0,0.1,0,0.1,0
		c-0.4,1.1-0.7,2.1-1.1,3.2c0,0,0.1,0.1,0.1,0.1c0.2-0.1,0.6-0.1,0.7-0.3c0.5-1.3,0.9-2.7,1.3-4.1c-0.6-0.2-1.1,0-1.5,0.6
		C13.1,6.5,12.4,7.4,11.7,8.3z M7.6,14.9c1-0.1,1.8,0,2.7-0.2c1.5-0.3,2.4-1.3,2.5-2.6c0.1-0.7-0.2-1.2-0.9-1.4
		c-0.5-0.1-1-0.2-1.5-0.2c-0.4,0-1-0.1-1.3,0.1c-0.3,0.2-0.4,0.8-0.5,1.2C8.2,12.8,7.9,13.8,7.6,14.9z"/>
	<path d="M9.7,11.1c0.4,0,0.8,0,1.1,0c0.7,0.1,1.1,0.5,1,1.3c-0.2,1-1,1.7-2.1,1.8c-0.3,0-0.6,0-1,0C9,13.1,9.4,12.1,9.7,11.1z"/>
</g>
</svg>
